<svg xmlns="http://www.w3.org/2000/svg" viewBox="0 0 1600 900" preserveAspectRatio="xMidYMid slice">
  <defs>
    <linearGradient id="bg" x1="0" y1="0" x2="0.9" y2="1">
      <stop offset="0%" stop-color="#09101c"/>
      <stop offset="70%" stop-color="#0b1a2d"/>
      <stop offset="100%" stop-color="#08111e"/>
    </linearGradient>
    <radialGradient id="light" cx="50%" cy="12%" r="55%">
      <stop offset="0%" stop-color="#9ee7ff" stop-opacity="0.42"/>
      <stop offset="100%" stop-color="#9ee7ff" stop-opacity="0"/>
    </radialGradient>
    <linearGradient id="court" x1="0" y1="0" x2="0" y2="1">
      <stop offset="0%" stop-color="#175a94"/>
      <stop offset="100%" stop-color="#0c3256"/>
    </linearGradient>
  </defs>
  <rect width="1600" height="900" fill="url(#bg)"/>
  <rect width="1600" height="900" fill="url(#light)"/>
  <g opacity="0.14" stroke="#c4e9ff" stroke-width="2">
    <path d="M0 150h1600M0 300h1600M0 450h1600M0 600h1600M0 750h1600"/>
    <path d="M200 0v900M400 0v900M600 0v900M800 0v900M1000 0v900M1200 0v900M1400 0v900"/>
  </g>
  <g transform="translate(800 520)">
    <rect x="-360" y="-185" width="720" height="360" rx="30" fill="#113555" opacity="0.55"/>
    <rect x="-310" y="-155" width="620" height="310" rx="22" fill="url(#court)"/>
    <rect x="-280" y="-126" width="560" height="252" rx="14" fill="none" stroke="#d6f5ff" stroke-width="6"/>
    <path d="M0-126V126M-280 0H280M-280 -63H280M-280 63H280" fill="none" stroke="#d6f5ff" stroke-width="5" stroke-opacity="0.95"/>
    <rect x="-8" y="-150" width="16" height="300" rx="8" fill="#f9fdff"/>
    <rect x="-412" y="-278" width="34" height="204" rx="17" fill="#dbefff" opacity="0.65"/>
    <rect x="378" y="-278" width="34" height="204" rx="17" fill="#dbefff" opacity="0.65"/>
  </g>
  <g opacity="0.88">
    <circle cx="1180" cy="168" r="38" fill="#ffd166"/>
    <path d="M1244 120c48 9 87 48 96 96" fill="none" stroke="#fff1bf" stroke-width="10" stroke-linecap="round"/>
  </g>
</svg>