<svg xmlns="http://www.w3.org/2000/svg" viewBox="0 0 512 512" role="img" aria-label="ACE Academy Manager">
  <defs>
    <linearGradient id="g" x1="0" y1="0" x2="1" y2="1">
      <stop offset="0%" stop-color="#7ef2cb"/>
      <stop offset="55%" stop-color="#5a8cff"/>
      <stop offset="100%" stop-color="#ffd166"/>
    </linearGradient>
    <radialGradient id="a" cx="30%" cy="20%" r="80%">
      <stop offset="0%" stop-color="#1c355d"/>
      <stop offset="100%" stop-color="#08111e"/>
    </radialGradient>
  </defs>
  <rect width="512" height="512" rx="116" fill="url(#a)"/>
  <path d="M256 48c82 0 148 66 148 148 0 56-28 92-66 144l-82 111-82-111c-38-52-66-88-66-144 0-82 66-148 148-148Z" fill="url(#g)" opacity="0.12"/>
  <circle cx="256" cy="166" r="64" fill="#ffd166"/>
  <path d="M174 332 245 152h23l70 180h-37l-12-31h-67l-12 31Zm63-63h38l-19-54Z" fill="url(#g)"/>
  <path d="M344 114c38 10 68 41 79 79" fill="none" stroke="#ffffff" stroke-width="18" stroke-linecap="round" opacity="0.92"/>
</svg>